<svg width="870" height="1230" viewBox="0 0 87 123" fill="none" xmlns="http://www.w3.org/2000/svg">
<path d="M37.7106 64.946C92.0608 61.3226 29.2688 113.132 18.8553 113.132C8.4418 113.132 0 119.417 0 64.946C0 38.3337 8.4418 16.7603 18.8553 16.7603C29.2688 16.7603 6.2851 67.041 37.7106 64.946Z" fill="#0E4DA4"/>
<circle cx="16.7603" cy="14.6652" r="14.6652" fill="#1BB55C"/>
<path d="M48.1397 57.1612C-6.2655 59.8354 57.4211 9.13009 67.833 9.31183C78.2449 9.49357 86.7951 3.35676 85.8445 57.8193C85.38 84.4275 76.563 105.85 66.1511 105.669C55.7392 105.487 79.5969 55.6149 48.1397 57.1612Z" fill="#1BB55C"/>
<circle cx="68.2092" cy="107.8" r="14.6652" transform="rotate(-179 68.2092 107.8)" fill="#0E4DA4"/>
<path d="M37.7106 64.946C92.0608 61.3226 29.2688 113.132 18.8553 113.132C8.4418 113.132 0 119.417 0 64.946C0 38.3337 8.4418 16.7603 18.8553 16.7603C29.2688 16.7603 6.2851 67.041 37.7106 64.946Z" fill="#0E4DA4"/>
<circle cx="16.7603" cy="14.6652" r="14.6652" fill="#1BB55C"/>
<path d="M48.1397 57.1612C-6.2655 59.8354 57.4211 9.13009 67.833 9.31183C78.2449 9.49357 86.7951 3.35676 85.8445 57.8193C85.38 84.4275 76.563 105.85 66.1511 105.669C55.7392 105.487 79.5969 55.6149 48.1397 57.1612Z" fill="#1BB55C"/>
<circle cx="68.2092" cy="107.8" r="14.6652" transform="rotate(-179 68.2092 107.8)" fill="#0E4DA4"/>
</svg>
